<?xml version="1.0" encoding="utf-8"?>
<!-- Generator: Adobe Illustrator 26.4.1, SVG Export Plug-In . SVG Version: 6.00 Build 0)  -->
<svg version="1.1" id="Layer_1" xmlns="http://www.w3.org/2000/svg" xmlns:xlink="http://www.w3.org/1999/xlink" x="0px" y="0px"
	 viewBox="0 0 259.67 300" style="enable-background:new 0 0 259.67 300;" xml:space="preserve">
<style type="text/css">
	.st0{fill:#f9f9f9;}
</style>
<path class="st0" d="M236.59,140.49v-38.85V88.32l-11.53-6.66l-95.29-55.02l-72.22,41.7L34.47,55.02L64.81,37.5L129.76,0l64.95,37.5
	l53.42,30.84L259.67,75v13.32V150v75l-23.07,13.32l-23.07,13.32l-18.81,10.86l-4.26,2.46l-23.07,13.32L129.76,300l-64.95-37.5
	l-41.88-24.18L46,225l83.76,48.36l37.62-21.72l23.07-13.32l23.07-13.32l23.07-13.32V140.49L236.59,140.49z M213.52,114.96v25.53
	v57.87l-23.07,13.32v-26.64v-44.55v-12.21c-20.53,11.85-39.78,22.96-60.69,35.04L106.69,150l-37.62-21.72L46,114.96l-23.07-13.32
	v110.04L-0.13,225v-75V88.32V75l11.53-6.66l23.07,13.32l23.07,13.32l23.07,13.32l49.16,28.38l23.07-13.32l26.08-15.06l23.07-13.32
	l11.53,6.66L213.52,114.96L213.52,114.96z"/>
</svg>
